<mxfile host="app.diagrams.net" agent="Mozilla/5.0 (Windows NT 10.0; Win64; x64) AppleWebKit/537.36 (KHTML, like Gecko) Chrome/98.0.4758.139 Safari/537.36" version="25.0.1">
  <diagram name="第 1 页" id="dDundkh1Q2r8naMCAjJB">
    <mxGraphModel dx="2074" dy="1119" grid="1" gridSize="10" guides="1" tooltips="1" connect="1" arrows="1" fold="1" page="1" pageScale="1" pageWidth="1169" pageHeight="827" math="0" shadow="0">
      <root>
        <mxCell id="0" />
        <mxCell id="1" parent="0" />
        <mxCell id="O-WrQp41GENTJy3OARPs-111" value="" style="rounded=1;whiteSpace=wrap;html=1;shadow=0;" vertex="1" parent="1">
          <mxGeometry x="1580" y="860" width="190" height="350" as="geometry" />
        </mxCell>
        <mxCell id="mTrDEz1nqdT5TnVAm15j-2" value="&lt;font style=&quot;font-size: 24px;&quot;&gt;AI单元&lt;/font&gt;" style="rounded=1;whiteSpace=wrap;html=1;fillColor=#fff2cc;strokeColor=#d6b656;" parent="1" vertex="1">
          <mxGeometry x="120" y="130" width="80" height="180" as="geometry" />
        </mxCell>
        <mxCell id="mTrDEz1nqdT5TnVAm15j-6" value="&lt;font style=&quot;font-size: 24px;&quot;&gt;控制器系统&lt;/font&gt;" style="rounded=1;whiteSpace=wrap;html=1;fillColor=#dae8fc;strokeColor=#6c8ebf;" parent="1" vertex="1">
          <mxGeometry x="310" y="130" width="80" height="180" as="geometry" />
        </mxCell>
        <mxCell id="mTrDEz1nqdT5TnVAm15j-7" value="&lt;font style=&quot;font-size: 24px;&quot;&gt;反应单元&lt;/font&gt;" style="rounded=1;whiteSpace=wrap;html=1;fillColor=#f8cecc;strokeColor=#b85450;" parent="1" vertex="1">
          <mxGeometry x="500" y="130" width="130" height="70" as="geometry" />
        </mxCell>
        <mxCell id="mTrDEz1nqdT5TnVAm15j-8" value="&lt;span style=&quot;font-size: 24px;&quot;&gt;监测单元&lt;/span&gt;" style="rounded=1;whiteSpace=wrap;html=1;fillColor=#f8cecc;strokeColor=#b85450;glass=0;shadow=0;" parent="1" vertex="1">
          <mxGeometry x="500" y="240" width="130" height="70" as="geometry" />
        </mxCell>
        <mxCell id="mTrDEz1nqdT5TnVAm15j-9" value="" style="shape=flexArrow;endArrow=classic;startArrow=classic;html=1;rounded=0;fillColor=#f5f5f5;strokeColor=#666666;" parent="1" edge="1">
          <mxGeometry width="100" height="100" relative="1" as="geometry">
            <mxPoint x="400" y="164.71" as="sourcePoint" />
            <mxPoint x="490" y="165.13" as="targetPoint" />
          </mxGeometry>
        </mxCell>
        <mxCell id="mTrDEz1nqdT5TnVAm15j-10" value="" style="shape=flexArrow;endArrow=classic;startArrow=classic;html=1;rounded=0;fillColor=#f5f5f5;strokeColor=#666666;" parent="1" edge="1">
          <mxGeometry width="100" height="100" relative="1" as="geometry">
            <mxPoint x="400" y="274.71" as="sourcePoint" />
            <mxPoint x="490" y="275.13" as="targetPoint" />
          </mxGeometry>
        </mxCell>
        <mxCell id="mTrDEz1nqdT5TnVAm15j-12" value="" style="shape=flexArrow;endArrow=classic;html=1;rounded=0;width=4.8;endSize=3.2880000000000003;endWidth=10.228571428571428;fillColor=#f5f5f5;strokeColor=#666666;" parent="1" edge="1">
          <mxGeometry width="50" height="50" relative="1" as="geometry">
            <mxPoint x="210" y="190" as="sourcePoint" />
            <mxPoint x="300" y="190" as="targetPoint" />
            <Array as="points">
              <mxPoint x="260" y="190" />
            </Array>
          </mxGeometry>
        </mxCell>
        <mxCell id="mTrDEz1nqdT5TnVAm15j-13" value="" style="shape=flexArrow;endArrow=classic;html=1;rounded=0;width=4.8;endSize=3.2880000000000003;endWidth=10.228571428571428;fillColor=#f5f5f5;strokeColor=#666666;" parent="1" edge="1">
          <mxGeometry width="50" height="50" relative="1" as="geometry">
            <mxPoint x="300" y="240" as="sourcePoint" />
            <mxPoint x="210" y="240" as="targetPoint" />
            <Array as="points">
              <mxPoint x="260" y="240" />
            </Array>
          </mxGeometry>
        </mxCell>
        <mxCell id="mTrDEz1nqdT5TnVAm15j-15" value="合成路线" style="text;strokeColor=none;align=center;fillColor=none;html=1;verticalAlign=middle;whiteSpace=wrap;rounded=0;fontSize=16;" parent="1" vertex="1">
          <mxGeometry x="220" y="160" width="70" height="20" as="geometry" />
        </mxCell>
        <mxCell id="mTrDEz1nqdT5TnVAm15j-16" value="合成结果" style="text;strokeColor=none;align=center;fillColor=none;html=1;verticalAlign=middle;whiteSpace=wrap;rounded=0;fontSize=16;" parent="1" vertex="1">
          <mxGeometry x="220" y="250" width="70" height="20" as="geometry" />
        </mxCell>
        <mxCell id="O-WrQp41GENTJy3OARPs-1" value="" style="rounded=1;whiteSpace=wrap;html=1;" vertex="1" parent="1">
          <mxGeometry x="80" y="380" width="860" height="360" as="geometry" />
        </mxCell>
        <mxCell id="O-WrQp41GENTJy3OARPs-2" value="&lt;font style=&quot;font-size: 26px;&quot;&gt;A72&lt;/font&gt;" style="rounded=0;whiteSpace=wrap;html=1;fillColor=#ffe6cc;strokeColor=#d79b00;" vertex="1" parent="1">
          <mxGeometry x="120" y="450" width="180" height="120" as="geometry" />
        </mxCell>
        <mxCell id="O-WrQp41GENTJy3OARPs-3" value="&lt;font style=&quot;font-size: 26px;&quot;&gt;A72&lt;/font&gt;" style="rounded=0;whiteSpace=wrap;html=1;fillColor=#ffe6cc;strokeColor=#d79b00;" vertex="1" parent="1">
          <mxGeometry x="120" y="600" width="180" height="120" as="geometry" />
        </mxCell>
        <mxCell id="O-WrQp41GENTJy3OARPs-8" value="&lt;font style=&quot;font-size: 26px;&quot;&gt;GPU&lt;/font&gt;" style="rounded=0;whiteSpace=wrap;html=1;fillColor=#dae8fc;strokeColor=#6c8ebf;" vertex="1" parent="1">
          <mxGeometry x="710" y="450" width="190" height="120" as="geometry" />
        </mxCell>
        <mxCell id="O-WrQp41GENTJy3OARPs-9" value="&lt;font style=&quot;font-size: 26px;&quot;&gt;GPU&lt;/font&gt;" style="rounded=0;whiteSpace=wrap;html=1;fillColor=#dae8fc;strokeColor=#6c8ebf;" vertex="1" parent="1">
          <mxGeometry x="710" y="600" width="190" height="120" as="geometry" />
        </mxCell>
        <mxCell id="O-WrQp41GENTJy3OARPs-10" value="&lt;font style=&quot;font-size: 26px;&quot;&gt;A53&lt;/font&gt;" style="rounded=0;whiteSpace=wrap;html=1;fillColor=#d5e8d4;strokeColor=#82b366;" vertex="1" parent="1">
          <mxGeometry x="380" y="450" width="120" height="120" as="geometry" />
        </mxCell>
        <mxCell id="O-WrQp41GENTJy3OARPs-11" value="&lt;font style=&quot;font-size: 26px;&quot;&gt;A53&lt;/font&gt;" style="rounded=0;whiteSpace=wrap;html=1;fillColor=#d5e8d4;strokeColor=#82b366;" vertex="1" parent="1">
          <mxGeometry x="520" y="450" width="120" height="120" as="geometry" />
        </mxCell>
        <mxCell id="O-WrQp41GENTJy3OARPs-12" value="&lt;font style=&quot;font-size: 26px;&quot;&gt;A53&lt;/font&gt;" style="rounded=0;whiteSpace=wrap;html=1;fillColor=#d5e8d4;strokeColor=#82b366;" vertex="1" parent="1">
          <mxGeometry x="380" y="600" width="120" height="120" as="geometry" />
        </mxCell>
        <mxCell id="O-WrQp41GENTJy3OARPs-13" value="&lt;font style=&quot;font-size: 26px;&quot;&gt;A53&lt;/font&gt;" style="rounded=0;whiteSpace=wrap;html=1;fillColor=#d5e8d4;strokeColor=#82b366;" vertex="1" parent="1">
          <mxGeometry x="520" y="600" width="120" height="120" as="geometry" />
        </mxCell>
        <mxCell id="O-WrQp41GENTJy3OARPs-18" value="&lt;font&gt;i.MX8QM&amp;nbsp; 核心处理单元&lt;/font&gt;" style="text;strokeColor=none;align=center;fillColor=none;html=1;verticalAlign=middle;whiteSpace=wrap;rounded=0;fontSize=40;" vertex="1" parent="1">
          <mxGeometry x="260" y="398" width="500" height="30" as="geometry" />
        </mxCell>
        <mxCell id="O-WrQp41GENTJy3OARPs-20" value="" style="rounded=1;whiteSpace=wrap;html=1;shadow=0;" vertex="1" parent="1">
          <mxGeometry x="210" y="860" width="500" height="360" as="geometry" />
        </mxCell>
        <mxCell id="O-WrQp41GENTJy3OARPs-24" value="&lt;font style=&quot;font-size: 26px;&quot;&gt;PCIE&lt;/font&gt;" style="rounded=0;whiteSpace=wrap;html=1;fillColor=#ffe6cc;strokeColor=#d79b00;" vertex="1" parent="1">
          <mxGeometry x="310" y="860" width="300" height="50" as="geometry" />
        </mxCell>
        <mxCell id="O-WrQp41GENTJy3OARPs-25" value="&lt;font style=&quot;font-size: 26px;&quot;&gt;HDMI&lt;/font&gt;" style="rounded=0;whiteSpace=wrap;html=1;fillColor=#d5e8d4;strokeColor=#82b366;" vertex="1" parent="1">
          <mxGeometry x="210" y="1090" width="70" height="60" as="geometry" />
        </mxCell>
        <mxCell id="O-WrQp41GENTJy3OARPs-27" value="i.MX8QM&lt;div&gt;处理器&lt;/div&gt;" style="text;strokeColor=none;align=center;fillColor=none;html=1;verticalAlign=middle;whiteSpace=wrap;rounded=0;fontSize=30;" vertex="1" parent="1">
          <mxGeometry x="380" y="990" width="180" height="100" as="geometry" />
        </mxCell>
        <mxCell id="O-WrQp41GENTJy3OARPs-28" value="&lt;font style=&quot;font-size: 26px;&quot;&gt;ETH1&lt;/font&gt;" style="rounded=0;whiteSpace=wrap;html=1;fillColor=#f8cecc;strokeColor=#b85450;" vertex="1" parent="1">
          <mxGeometry x="640" y="920" width="70" height="100" as="geometry" />
        </mxCell>
        <mxCell id="O-WrQp41GENTJy3OARPs-29" value="&lt;font style=&quot;font-size: 26px;&quot;&gt;ETH2&lt;/font&gt;" style="rounded=0;whiteSpace=wrap;html=1;fillColor=#f8cecc;strokeColor=#b85450;" vertex="1" parent="1">
          <mxGeometry x="640" y="1060" width="70" height="100" as="geometry" />
        </mxCell>
        <mxCell id="O-WrQp41GENTJy3OARPs-31" value="&lt;font style=&quot;font-size: 26px;&quot;&gt;USB1&lt;/font&gt;" style="rounded=0;whiteSpace=wrap;html=1;fillColor=#d5e8d4;strokeColor=#82b366;" vertex="1" parent="1">
          <mxGeometry x="210" y="1000" width="70" height="60" as="geometry" />
        </mxCell>
        <mxCell id="O-WrQp41GENTJy3OARPs-32" value="&lt;font style=&quot;font-size: 26px;&quot;&gt;USB2&lt;/font&gt;" style="rounded=0;whiteSpace=wrap;html=1;fillColor=#d5e8d4;strokeColor=#82b366;" vertex="1" parent="1">
          <mxGeometry x="210" y="910" width="70" height="60" as="geometry" />
        </mxCell>
        <mxCell id="O-WrQp41GENTJy3OARPs-33" value="&lt;font&gt;FDCAN1&lt;/font&gt;" style="rounded=0;whiteSpace=wrap;html=1;fillColor=#dae8fc;strokeColor=#6c8ebf;gradientColor=none;fontSize=22;" vertex="1" parent="1">
          <mxGeometry x="330" y="1160" width="90" height="60" as="geometry" />
        </mxCell>
        <mxCell id="O-WrQp41GENTJy3OARPs-34" value="&lt;font&gt;FDCAN2&lt;/font&gt;" style="rounded=0;whiteSpace=wrap;html=1;fillColor=#dae8fc;strokeColor=#6c8ebf;fontSize=22;" vertex="1" parent="1">
          <mxGeometry x="500" y="1160" width="90" height="60" as="geometry" />
        </mxCell>
        <mxCell id="O-WrQp41GENTJy3OARPs-36" value="" style="rounded=1;whiteSpace=wrap;html=1;shadow=0;" vertex="1" parent="1">
          <mxGeometry x="210" y="1310" width="500" height="360" as="geometry" />
        </mxCell>
        <mxCell id="O-WrQp41GENTJy3OARPs-37" value="&lt;font style=&quot;font-size: 26px;&quot;&gt;UART1&lt;/font&gt;" style="rounded=0;whiteSpace=wrap;html=1;fillColor=#d5e8d4;strokeColor=#82b366;" vertex="1" parent="1">
          <mxGeometry x="210" y="1370" width="90" height="50" as="geometry" />
        </mxCell>
        <mxCell id="O-WrQp41GENTJy3OARPs-39" value="&lt;div&gt;STM32H750处理器&lt;/div&gt;" style="text;strokeColor=none;align=center;fillColor=none;html=1;verticalAlign=middle;whiteSpace=wrap;rounded=0;fontSize=30;" vertex="1" parent="1">
          <mxGeometry x="380" y="1430" width="180" height="100" as="geometry" />
        </mxCell>
        <mxCell id="O-WrQp41GENTJy3OARPs-41" value="&lt;font style=&quot;font-size: 26px;&quot;&gt;ETH&lt;/font&gt;" style="rounded=0;whiteSpace=wrap;html=1;fillColor=#dae8fc;strokeColor=#6c8ebf;" vertex="1" parent="1">
          <mxGeometry x="540" y="1610" width="70" height="60" as="geometry" />
        </mxCell>
        <mxCell id="O-WrQp41GENTJy3OARPs-42" value="&lt;font style=&quot;font-size: 26px;&quot;&gt;USB&lt;/font&gt;" style="rounded=0;whiteSpace=wrap;html=1;fillColor=#dae8fc;strokeColor=#6c8ebf;" vertex="1" parent="1">
          <mxGeometry x="430" y="1610" width="90" height="60" as="geometry" />
        </mxCell>
        <mxCell id="O-WrQp41GENTJy3OARPs-44" value="&lt;font&gt;FDCAN&lt;/font&gt;" style="rounded=0;whiteSpace=wrap;html=1;fillColor=#dae8fc;strokeColor=#6c8ebf;gradientColor=none;fontSize=24;" vertex="1" parent="1">
          <mxGeometry x="320" y="1610" width="90" height="60" as="geometry" />
        </mxCell>
        <mxCell id="O-WrQp41GENTJy3OARPs-46" value="&lt;font style=&quot;font-size: 26px;&quot;&gt;UART2&lt;/font&gt;" style="rounded=0;whiteSpace=wrap;html=1;fillColor=#d5e8d4;strokeColor=#82b366;" vertex="1" parent="1">
          <mxGeometry x="210" y="1437" width="90" height="50" as="geometry" />
        </mxCell>
        <mxCell id="O-WrQp41GENTJy3OARPs-47" value="&lt;font style=&quot;font-size: 26px;&quot;&gt;UART3&lt;/font&gt;" style="rounded=0;whiteSpace=wrap;html=1;fillColor=#d5e8d4;strokeColor=#82b366;" vertex="1" parent="1">
          <mxGeometry x="210" y="1503" width="90" height="50" as="geometry" />
        </mxCell>
        <mxCell id="O-WrQp41GENTJy3OARPs-48" value="&lt;font style=&quot;font-size: 26px;&quot;&gt;UART4&lt;/font&gt;" style="rounded=0;whiteSpace=wrap;html=1;fillColor=#d5e8d4;strokeColor=#82b366;" vertex="1" parent="1">
          <mxGeometry x="210" y="1570" width="90" height="50" as="geometry" />
        </mxCell>
        <mxCell id="O-WrQp41GENTJy3OARPs-49" value="&lt;span style=&quot;font-size: 26px;&quot;&gt;PWM1&lt;/span&gt;" style="rounded=0;whiteSpace=wrap;html=1;fillColor=#f5f5f5;strokeColor=#666666;fontColor=#333333;" vertex="1" parent="1">
          <mxGeometry x="620" y="1370" width="90" height="50" as="geometry" />
        </mxCell>
        <mxCell id="O-WrQp41GENTJy3OARPs-50" value="&lt;span style=&quot;font-size: 26px;&quot;&gt;PWM2&lt;/span&gt;" style="rounded=0;whiteSpace=wrap;html=1;fillColor=#f5f5f5;strokeColor=#666666;fontColor=#333333;" vertex="1" parent="1">
          <mxGeometry x="620" y="1437" width="90" height="50" as="geometry" />
        </mxCell>
        <mxCell id="O-WrQp41GENTJy3OARPs-51" value="&lt;span style=&quot;font-size: 26px;&quot;&gt;PWM3&lt;/span&gt;" style="rounded=0;whiteSpace=wrap;html=1;fillColor=#f5f5f5;strokeColor=#666666;fontColor=#333333;" vertex="1" parent="1">
          <mxGeometry x="620" y="1503" width="90" height="50" as="geometry" />
        </mxCell>
        <mxCell id="O-WrQp41GENTJy3OARPs-52" value="&lt;font style=&quot;font-size: 26px;&quot;&gt;PWM4&lt;/font&gt;" style="rounded=0;whiteSpace=wrap;html=1;fillColor=#f5f5f5;strokeColor=#666666;fontColor=#333333;" vertex="1" parent="1">
          <mxGeometry x="620" y="1570" width="90" height="50" as="geometry" />
        </mxCell>
        <mxCell id="O-WrQp41GENTJy3OARPs-53" value="&lt;font&gt;ADC1&lt;/font&gt;" style="rounded=0;whiteSpace=wrap;html=1;fillColor=#f8cecc;strokeColor=#b85450;fontSize=22;" vertex="1" parent="1">
          <mxGeometry x="310" y="1310" width="70" height="50" as="geometry" />
        </mxCell>
        <mxCell id="O-WrQp41GENTJy3OARPs-56" value="&lt;font&gt;ADC2&lt;/font&gt;" style="rounded=0;whiteSpace=wrap;html=1;fillColor=#f8cecc;strokeColor=#b85450;fontSize=22;" vertex="1" parent="1">
          <mxGeometry x="390" y="1310" width="70" height="50" as="geometry" />
        </mxCell>
        <mxCell id="O-WrQp41GENTJy3OARPs-57" value="&lt;font&gt;ADC3&lt;/font&gt;" style="rounded=0;whiteSpace=wrap;html=1;fillColor=#f8cecc;strokeColor=#b85450;fontSize=22;" vertex="1" parent="1">
          <mxGeometry x="470" y="1310" width="70" height="50" as="geometry" />
        </mxCell>
        <mxCell id="O-WrQp41GENTJy3OARPs-58" value="&lt;font&gt;ADC4&lt;/font&gt;" style="rounded=0;whiteSpace=wrap;html=1;fillColor=#f8cecc;strokeColor=#b85450;fontSize=22;" vertex="1" parent="1">
          <mxGeometry x="550" y="1310" width="70" height="50" as="geometry" />
        </mxCell>
        <mxCell id="O-WrQp41GENTJy3OARPs-64" value="" style="sketch=0;aspect=fixed;pointerEvents=1;shadow=0;dashed=0;html=1;strokeColor=#666666;labelPosition=center;verticalLabelPosition=bottom;verticalAlign=top;align=center;fillColor=#f5f5f5;shape=mxgraph.mscae.enterprise.workstation_client;fontColor=#333333;flipH=1;" vertex="1" parent="1">
          <mxGeometry x="910" y="890" width="310" height="310" as="geometry" />
        </mxCell>
        <mxCell id="O-WrQp41GENTJy3OARPs-65" value="" style="rounded=1;whiteSpace=wrap;html=1;shadow=0;" vertex="1" parent="1">
          <mxGeometry x="1290" y="870" width="220" height="340" as="geometry" />
        </mxCell>
        <mxCell id="O-WrQp41GENTJy3OARPs-66" value="&lt;font style=&quot;font-size: 26px;&quot;&gt;PCIE&lt;/font&gt;" style="rounded=0;whiteSpace=wrap;html=1;fillColor=#ffe6cc;strokeColor=#d79b00;rotation=-90;" vertex="1" parent="1">
          <mxGeometry x="1210" y="1020" width="210" height="50" as="geometry" />
        </mxCell>
        <mxCell id="O-WrQp41GENTJy3OARPs-68" value="i.MX8" style="text;strokeColor=none;align=center;fillColor=none;html=1;verticalAlign=middle;whiteSpace=wrap;rounded=0;fontSize=26;" vertex="1" parent="1">
          <mxGeometry x="1300" y="873" width="190" height="40" as="geometry" />
        </mxCell>
        <mxCell id="O-WrQp41GENTJy3OARPs-69" value="&lt;font style=&quot;font-size: 26px;&quot;&gt;ETH1&lt;/font&gt;" style="rounded=0;whiteSpace=wrap;html=1;fillColor=#f8cecc;strokeColor=#b85450;" vertex="1" parent="1">
          <mxGeometry x="1440" y="900" width="70" height="50" as="geometry" />
        </mxCell>
        <mxCell id="O-WrQp41GENTJy3OARPs-70" value="&lt;font style=&quot;font-size: 26px;&quot;&gt;ETH2&lt;/font&gt;" style="rounded=0;whiteSpace=wrap;html=1;fillColor=#f8cecc;strokeColor=#b85450;" vertex="1" parent="1">
          <mxGeometry x="1440" y="974" width="70" height="50" as="geometry" />
        </mxCell>
        <mxCell id="O-WrQp41GENTJy3OARPs-73" value="CAN1" style="rounded=0;whiteSpace=wrap;html=1;fillColor=#dae8fc;strokeColor=#6c8ebf;gradientColor=none;fontSize=22;" vertex="1" parent="1">
          <mxGeometry x="1440" y="1045" width="70" height="57.5" as="geometry" />
        </mxCell>
        <mxCell id="O-WrQp41GENTJy3OARPs-79" value="" style="verticalLabelPosition=bottom;html=1;verticalAlign=top;align=center;strokeColor=#666666;fillColor=#f5f5f5;shape=mxgraph.azure.computer;pointerEvents=1;fontColor=#333333;" vertex="1" parent="1">
          <mxGeometry x="1830" y="1670" width="190" height="125" as="geometry" />
        </mxCell>
        <mxCell id="O-WrQp41GENTJy3OARPs-81" value="" style="sketch=0;aspect=fixed;pointerEvents=1;shadow=0;dashed=0;html=1;strokeColor=#666666;labelPosition=center;verticalLabelPosition=bottom;verticalAlign=top;align=center;fillColor=#f5f5f5;shape=mxgraph.azure.laptop;fontColor=#333333;" vertex="1" parent="1">
          <mxGeometry x="930" y="1360" width="221.67" height="133" as="geometry" />
        </mxCell>
        <mxCell id="O-WrQp41GENTJy3OARPs-82" value="工作站" style="text;strokeColor=none;align=center;fillColor=none;html=1;verticalAlign=middle;whiteSpace=wrap;rounded=0;fontSize=26;" vertex="1" parent="1">
          <mxGeometry x="1050" y="895" width="190" height="40" as="geometry" />
        </mxCell>
        <mxCell id="O-WrQp41GENTJy3OARPs-83" value="&lt;font style=&quot;font-size: 26px;&quot;&gt;AI单元&lt;/font&gt;" style="rounded=1;whiteSpace=wrap;html=1;fillColor=#fff2cc;strokeColor=#d6b656;" vertex="1" parent="1">
          <mxGeometry x="950" y="1040" width="140" height="80" as="geometry" />
        </mxCell>
        <mxCell id="O-WrQp41GENTJy3OARPs-84" value="CAN2" style="rounded=0;whiteSpace=wrap;html=1;fillColor=#dae8fc;strokeColor=#6c8ebf;gradientColor=none;fontSize=22;" vertex="1" parent="1">
          <mxGeometry x="1440" y="1120" width="70" height="55" as="geometry" />
        </mxCell>
        <mxCell id="O-WrQp41GENTJy3OARPs-95" value="" style="sketch=0;aspect=fixed;pointerEvents=1;shadow=0;dashed=0;html=1;strokeColor=#666666;labelPosition=center;verticalLabelPosition=bottom;verticalAlign=top;align=center;fillColor=#f5f5f5;shape=mxgraph.mscae.enterprise.keyboard;fontColor=#333333;" vertex="1" parent="1">
          <mxGeometry x="1830" y="1809.5" width="135" height="81" as="geometry" />
        </mxCell>
        <mxCell id="O-WrQp41GENTJy3OARPs-96" value="" style="sketch=0;aspect=fixed;pointerEvents=1;shadow=0;dashed=0;html=1;labelPosition=center;verticalLabelPosition=bottom;verticalAlign=top;align=center;shape=mxgraph.mscae.enterprise.mouse;fillColor=#f5f5f5;fontColor=#333333;strokeColor=#666666;" vertex="1" parent="1">
          <mxGeometry x="1990" y="1824.5" width="30" height="50" as="geometry" />
        </mxCell>
        <mxCell id="O-WrQp41GENTJy3OARPs-98" value="" style="rounded=1;whiteSpace=wrap;html=1;shadow=0;" vertex="1" parent="1">
          <mxGeometry x="719" y="1712.5" width="120" height="337.5" as="geometry" />
        </mxCell>
        <mxCell id="O-WrQp41GENTJy3OARPs-100" value="i.MX8" style="text;strokeColor=none;align=center;fillColor=none;html=1;verticalAlign=middle;whiteSpace=wrap;rounded=0;fontSize=26;" vertex="1" parent="1">
          <mxGeometry x="736.5" y="1713" width="85" height="40" as="geometry" />
        </mxCell>
        <mxCell id="O-WrQp41GENTJy3OARPs-101" value="&lt;font style=&quot;font-size: 26px;&quot;&gt;ETH1&lt;/font&gt;" style="rounded=0;whiteSpace=wrap;html=1;fillColor=#f8cecc;strokeColor=#b85450;" vertex="1" parent="1">
          <mxGeometry x="1210" y="1340" width="70" height="160" as="geometry" />
        </mxCell>
        <mxCell id="O-WrQp41GENTJy3OARPs-102" value="&lt;font style=&quot;font-size: 26px;&quot;&gt;ETH2&lt;/font&gt;" style="rounded=0;whiteSpace=wrap;html=1;fillColor=#f8cecc;strokeColor=#b85450;" vertex="1" parent="1">
          <mxGeometry x="1360" y="1320" width="70" height="50" as="geometry" />
        </mxCell>
        <mxCell id="O-WrQp41GENTJy3OARPs-103" value="CAN1" style="rounded=0;whiteSpace=wrap;html=1;fillColor=#dae8fc;strokeColor=#6c8ebf;gradientColor=none;fontSize=22;" vertex="1" parent="1">
          <mxGeometry x="1360" y="1410" width="70" height="57.5" as="geometry" />
        </mxCell>
        <mxCell id="O-WrQp41GENTJy3OARPs-104" value="CAN2" style="rounded=0;whiteSpace=wrap;html=1;fillColor=#dae8fc;strokeColor=#6c8ebf;gradientColor=none;fontSize=22;" vertex="1" parent="1">
          <mxGeometry x="1360" y="1500" width="70" height="55" as="geometry" />
        </mxCell>
        <mxCell id="O-WrQp41GENTJy3OARPs-107" value="&lt;span style=&quot;font-size: 24px;&quot;&gt;分析仪1&lt;/span&gt;" style="rounded=1;whiteSpace=wrap;html=1;fillColor=#d5e8d4;strokeColor=#82b366;glass=0;shadow=0;" vertex="1" parent="1">
          <mxGeometry x="1590" y="875" width="160" height="45" as="geometry" />
        </mxCell>
        <mxCell id="O-WrQp41GENTJy3OARPs-110" value="" style="html=1;shadow=0;dashed=0;align=center;verticalAlign=middle;shape=mxgraph.arrows2.twoWayArrow;dy=0.74;dx=18.33;" vertex="1" parent="1">
          <mxGeometry x="839.8299999999999" y="1795" width="70" height="30" as="geometry" />
        </mxCell>
        <mxCell id="O-WrQp41GENTJy3OARPs-113" value="&lt;span style=&quot;font-size: 24px;&quot;&gt;分析仪n&lt;/span&gt;" style="rounded=1;whiteSpace=wrap;html=1;fillColor=#d5e8d4;strokeColor=#82b366;glass=0;shadow=0;" vertex="1" parent="1">
          <mxGeometry x="1590" y="960" width="160" height="40" as="geometry" />
        </mxCell>
        <mxCell id="O-WrQp41GENTJy3OARPs-115" value="&lt;span style=&quot;font-size: 24px;&quot;&gt;MCU1&lt;/span&gt;" style="rounded=1;whiteSpace=wrap;html=1;glass=0;shadow=0;fillColor=#b0e3e6;strokeColor=#0e8088;" vertex="1" parent="1">
          <mxGeometry x="1590" y="1050" width="160" height="40" as="geometry" />
        </mxCell>
        <mxCell id="O-WrQp41GENTJy3OARPs-116" value="&lt;span style=&quot;font-size: 24px;&quot;&gt;MCUn&lt;/span&gt;" style="rounded=1;whiteSpace=wrap;html=1;fillColor=#b0e3e6;strokeColor=#0e8088;glass=0;shadow=0;" vertex="1" parent="1">
          <mxGeometry x="1590" y="1130" width="160" height="40" as="geometry" />
        </mxCell>
        <mxCell id="O-WrQp41GENTJy3OARPs-117" value="..." style="text;strokeColor=none;align=center;fillColor=none;html=1;verticalAlign=middle;whiteSpace=wrap;rounded=0;fontSize=39;" vertex="1" parent="1">
          <mxGeometry x="1640" y="913" width="60" height="30" as="geometry" />
        </mxCell>
        <mxCell id="O-WrQp41GENTJy3OARPs-119" value="..." style="text;strokeColor=none;align=center;fillColor=none;html=1;verticalAlign=middle;whiteSpace=wrap;rounded=0;fontSize=39;" vertex="1" parent="1">
          <mxGeometry x="1640" y="1080" width="60" height="30" as="geometry" />
        </mxCell>
        <mxCell id="O-WrQp41GENTJy3OARPs-120" value="" style="html=1;shadow=0;dashed=0;align=center;verticalAlign=middle;shape=mxgraph.arrows2.twoWayArrow;dy=0.74;dx=18.33;" vertex="1" parent="1">
          <mxGeometry x="1510" y="950" width="70" height="30" as="geometry" />
        </mxCell>
        <mxCell id="O-WrQp41GENTJy3OARPs-121" value="" style="html=1;shadow=0;dashed=0;align=center;verticalAlign=middle;shape=mxgraph.arrows2.twoWayArrow;dy=0.74;dx=18.33;" vertex="1" parent="1">
          <mxGeometry x="1510" y="1095" width="70" height="30" as="geometry" />
        </mxCell>
        <mxCell id="O-WrQp41GENTJy3OARPs-122" value="" style="rounded=1;whiteSpace=wrap;html=1;shadow=0;" vertex="1" parent="1">
          <mxGeometry x="910" y="1710" width="280.83" height="340" as="geometry" />
        </mxCell>
        <mxCell id="O-WrQp41GENTJy3OARPs-124" value="STM32" style="text;strokeColor=none;align=center;fillColor=none;html=1;verticalAlign=middle;whiteSpace=wrap;rounded=0;fontSize=26;" vertex="1" parent="1">
          <mxGeometry x="980.8299999999999" y="1713" width="190" height="40" as="geometry" />
        </mxCell>
        <mxCell id="O-WrQp41GENTJy3OARPs-127" value="FDCAN" style="rounded=0;whiteSpace=wrap;html=1;fillColor=#dae8fc;strokeColor=#6c8ebf;gradientColor=none;fontSize=24;" vertex="1" parent="1">
          <mxGeometry x="910.83" y="1780" width="89.17" height="57" as="geometry" />
        </mxCell>
        <mxCell id="O-WrQp41GENTJy3OARPs-136" value="" style="html=1;shadow=0;dashed=0;align=center;verticalAlign=middle;shape=mxgraph.arrows2.twoWayArrow;dy=0.74;dx=18.33;" vertex="1" parent="1">
          <mxGeometry x="1190.83" y="1790" width="70" height="30" as="geometry" />
        </mxCell>
        <mxCell id="O-WrQp41GENTJy3OARPs-138" value="&lt;font style=&quot;font-size: 26px;&quot;&gt;ETH&lt;/font&gt;" style="rounded=0;whiteSpace=wrap;html=1;fillColor=#dae8fc;strokeColor=#6c8ebf;" vertex="1" parent="1">
          <mxGeometry x="910.83" y="1920" width="89.17" height="57" as="geometry" />
        </mxCell>
        <mxCell id="O-WrQp41GENTJy3OARPs-139" value="FDCAN" style="rounded=0;whiteSpace=wrap;html=1;fillColor=#dae8fc;strokeColor=#6c8ebf;gradientColor=none;fontSize=24;" vertex="1" parent="1">
          <mxGeometry x="749" y="1780" width="89.17" height="57" as="geometry" />
        </mxCell>
        <mxCell id="O-WrQp41GENTJy3OARPs-140" value="&lt;font style=&quot;font-size: 26px;&quot;&gt;ETH&lt;/font&gt;" style="rounded=0;whiteSpace=wrap;html=1;fillColor=#dae8fc;strokeColor=#6c8ebf;" vertex="1" parent="1">
          <mxGeometry x="749" y="1920" width="89.17" height="57" as="geometry" />
        </mxCell>
        <mxCell id="O-WrQp41GENTJy3OARPs-141" value="" style="html=1;shadow=0;dashed=0;align=center;verticalAlign=middle;shape=mxgraph.arrows2.twoWayArrow;dy=0.74;dx=18.33;" vertex="1" parent="1">
          <mxGeometry x="1220" y="1040" width="70" height="30" as="geometry" />
        </mxCell>
        <mxCell id="O-WrQp41GENTJy3OARPs-142" value="" style="html=1;shadow=0;dashed=0;align=center;verticalAlign=middle;shape=mxgraph.arrows2.twoWayArrow;dy=0.74;dx=18.33;" vertex="1" parent="1">
          <mxGeometry x="839.8299999999999" y="1933" width="70" height="30" as="geometry" />
        </mxCell>
        <mxCell id="O-WrQp41GENTJy3OARPs-143" value="&lt;font style=&quot;font-size: 21px;&quot;&gt;UART1&lt;/font&gt;&lt;div&gt;&lt;font style=&quot;font-size: 21px;&quot;&gt;UART2&lt;/font&gt;&lt;/div&gt;" style="rounded=0;whiteSpace=wrap;html=1;fillColor=#d5e8d4;strokeColor=#82b366;" vertex="1" parent="1">
          <mxGeometry x="1100" y="1780" width="90" height="50" as="geometry" />
        </mxCell>
        <mxCell id="O-WrQp41GENTJy3OARPs-144" value="" style="rounded=1;whiteSpace=wrap;html=1;shadow=0;" vertex="1" parent="1">
          <mxGeometry x="1261.83" y="1775" width="278.17" height="63.25" as="geometry" />
        </mxCell>
        <mxCell id="O-WrQp41GENTJy3OARPs-145" value="&lt;span style=&quot;font-size: 24px;&quot;&gt;注射泵1&lt;/span&gt;" style="rounded=1;whiteSpace=wrap;html=1;fillColor=#d5e8d4;strokeColor=#82b366;glass=0;shadow=0;" vertex="1" parent="1">
          <mxGeometry x="1271" y="1785" width="110" height="45" as="geometry" />
        </mxCell>
        <mxCell id="O-WrQp41GENTJy3OARPs-146" value="&lt;span style=&quot;font-size: 24px;&quot;&gt;注射泵n&lt;/span&gt;" style="rounded=1;whiteSpace=wrap;html=1;fillColor=#d5e8d4;strokeColor=#82b366;glass=0;shadow=0;" vertex="1" parent="1">
          <mxGeometry x="1420" y="1785" width="110" height="45" as="geometry" />
        </mxCell>
        <mxCell id="O-WrQp41GENTJy3OARPs-147" value="..." style="text;strokeColor=none;align=center;fillColor=none;html=1;verticalAlign=middle;whiteSpace=wrap;rounded=0;fontSize=39;" vertex="1" parent="1">
          <mxGeometry x="1370" y="1780" width="60" height="30" as="geometry" />
        </mxCell>
        <mxCell id="O-WrQp41GENTJy3OARPs-148" value="" style="html=1;shadow=0;dashed=0;align=center;verticalAlign=middle;shape=mxgraph.arrows2.twoWayArrow;dy=0.74;dx=18.33;" vertex="1" parent="1">
          <mxGeometry x="1190.83" y="1863.38" width="70" height="30" as="geometry" />
        </mxCell>
        <mxCell id="O-WrQp41GENTJy3OARPs-150" value="" style="rounded=1;whiteSpace=wrap;html=1;shadow=0;" vertex="1" parent="1">
          <mxGeometry x="1261.83" y="1848.38" width="278.17" height="63.25" as="geometry" />
        </mxCell>
        <mxCell id="O-WrQp41GENTJy3OARPs-151" value="&lt;span style=&quot;font-size: 24px;&quot;&gt;切换阀1&lt;/span&gt;" style="rounded=1;whiteSpace=wrap;html=1;fillColor=#d5e8d4;strokeColor=#82b366;glass=0;shadow=0;" vertex="1" parent="1">
          <mxGeometry x="1271" y="1858.38" width="110" height="45" as="geometry" />
        </mxCell>
        <mxCell id="O-WrQp41GENTJy3OARPs-152" value="&lt;span style=&quot;font-size: 24px;&quot;&gt;切换阀n&lt;/span&gt;" style="rounded=1;whiteSpace=wrap;html=1;fillColor=#d5e8d4;strokeColor=#82b366;glass=0;shadow=0;" vertex="1" parent="1">
          <mxGeometry x="1420" y="1858.38" width="110" height="45" as="geometry" />
        </mxCell>
        <mxCell id="O-WrQp41GENTJy3OARPs-153" value="..." style="text;strokeColor=none;align=center;fillColor=none;html=1;verticalAlign=middle;whiteSpace=wrap;rounded=0;fontSize=39;" vertex="1" parent="1">
          <mxGeometry x="1370" y="1853.38" width="60" height="30" as="geometry" />
        </mxCell>
        <mxCell id="O-WrQp41GENTJy3OARPs-160" value="" style="html=1;shadow=0;dashed=0;align=center;verticalAlign=middle;shape=mxgraph.arrows2.twoWayArrow;dy=0.74;dx=18.33;" vertex="1" parent="1">
          <mxGeometry x="1190.83" y="1935" width="70" height="30" as="geometry" />
        </mxCell>
        <mxCell id="O-WrQp41GENTJy3OARPs-161" value="&lt;font style=&quot;font-size: 26px;&quot;&gt;USB&lt;/font&gt;" style="rounded=0;whiteSpace=wrap;html=1;fillColor=#d5e8d4;strokeColor=#82b366;" vertex="1" parent="1">
          <mxGeometry x="1100" y="1925" width="90" height="50" as="geometry" />
        </mxCell>
        <mxCell id="O-WrQp41GENTJy3OARPs-162" value="" style="rounded=1;whiteSpace=wrap;html=1;shadow=0;" vertex="1" parent="1">
          <mxGeometry x="1261.83" y="1920" width="278.17" height="63.25" as="geometry" />
        </mxCell>
        <mxCell id="O-WrQp41GENTJy3OARPs-163" value="&lt;font style=&quot;font-size: 19px;&quot;&gt;压力传感器1&lt;/font&gt;" style="rounded=1;whiteSpace=wrap;html=1;fillColor=#d5e8d4;strokeColor=#82b366;glass=0;shadow=0;" vertex="1" parent="1">
          <mxGeometry x="1271" y="1930" width="110" height="45" as="geometry" />
        </mxCell>
        <mxCell id="O-WrQp41GENTJy3OARPs-165" value="..." style="text;strokeColor=none;align=center;fillColor=none;html=1;verticalAlign=middle;whiteSpace=wrap;rounded=0;fontSize=39;" vertex="1" parent="1">
          <mxGeometry x="1370" y="1925" width="60" height="30" as="geometry" />
        </mxCell>
        <mxCell id="O-WrQp41GENTJy3OARPs-166" value="&lt;font style=&quot;font-size: 19px;&quot;&gt;压力传感器n&lt;/font&gt;" style="rounded=1;whiteSpace=wrap;html=1;fillColor=#d5e8d4;strokeColor=#82b366;glass=0;shadow=0;" vertex="1" parent="1">
          <mxGeometry x="1420" y="1930" width="110" height="45" as="geometry" />
        </mxCell>
        <mxCell id="O-WrQp41GENTJy3OARPs-167" value="&lt;font style=&quot;font-size: 21px;&quot;&gt;UART3&lt;/font&gt;&lt;div&gt;&lt;font style=&quot;font-size: 21px;&quot;&gt;UART4&lt;/font&gt;&lt;/div&gt;" style="rounded=0;whiteSpace=wrap;html=1;fillColor=#d5e8d4;strokeColor=#82b366;" vertex="1" parent="1">
          <mxGeometry x="1100" y="1860" width="90" height="50" as="geometry" />
        </mxCell>
      </root>
    </mxGraphModel>
  </diagram>
</mxfile>
